<svg xmlns="http://www.w3.org/2000/svg" id="Layer_1" data-name="Layer 1" viewBox="0 0 607.25 684.61"><defs><style>.cls-1{fill:#fff}.cls-2{fill:#e5ff03}</style></defs><polygon points="548.73 200.78 548.73 483.81 303.63 625.32 58.53 483.81 58.53 200.78 303.63 59.28 548.73 200.78"/><path d="M303.64,53.63,53.63,198V486.62L303.64,631l250-144.35V198Zm240.19,150V333.77l-112.75-65.1V138.51Zm0,141.47V475.31L431.08,410.22V280ZM539,483.79,426.17,548.9,313.42,483.8l112.77-65.11ZM308.53,197.92V67.76l112.75,65.09V263Zm0,141.53V209.23l112.75,65.1V404.56ZM416.4,554.57,303.64,619.66,190.88,554.55l112.74-65.09ZM190.89,413.05l112.75-65.11L416.39,413l-112.77,65.1ZM186,404.56V274.33l112.76-65.11V339.45ZM186,263V132.87L298.73,67.76V197.91ZM293.83,483.8,181.07,548.9,68.32,483.81l112.77-65.1Zm-230.4-150V203.61l112.75-65.1V268.67ZM176.18,280V410.23L63.43,475.33V345.08Z" class="cls-1"/><circle cx="242.35" cy="310.62" r="26.82" class="cls-2" transform="translate(-148.66 262.35) rotate(-45)"/><circle cx="439.26" cy="283.8" r="36.48" class="cls-2" transform="translate(-83.6 273.32) rotate(-31.72)"/><circle cx="181.08" cy="483.79" r="26.82" class="cls-2"/><path d="M124.21,206.74a31.67,31.67,0,1,0,31.67,31.67A31.71,31.71,0,0,0,124.21,206.74Z" class="cls-2"/><rect width="88.38" height="88.38" x="303.63" y="439.61" class="cls-2"/><rect width="60.09" height="60.09" x="334.86" y="143.92" class="cls-2" transform="translate(-16.13 308.98) rotate(-45)"/></svg>